<mxfile host="app.diagrams.net" modified="2024-03-12T16:38:17.303Z" agent="Mozilla/5.0 (X11; Ubuntu; Linux x86_64; rv:123.0) Gecko/20100101 Firefox/123.0" etag="GFgp7x_jEaaNq6RjLIAo" version="23.1.4" type="github" pages="3">
  <diagram id="RdKlt-OUdkusdnMJ_LHf" name="Sekvensdiagram">
    <mxGraphModel dx="1434" dy="793" grid="1" gridSize="10" guides="1" tooltips="1" connect="1" arrows="1" fold="1" page="1" pageScale="1" pageWidth="850" pageHeight="1100" math="0" shadow="0">
      <root>
        <mxCell id="0" />
        <mxCell id="1" parent="0" />
        <mxCell id="zaPCLynjRVvkzG_28kJl-44" value="" style="endArrow=none;dashed=1;html=1;rounded=0;exitX=0.5;exitY=1;exitDx=0;exitDy=0;startArrow=none;opacity=50;" edge="1" parent="1">
          <mxGeometry width="50" height="50" relative="1" as="geometry">
            <mxPoint x="74" y="100" as="sourcePoint" />
            <mxPoint x="74.79487179487182" y="410" as="targetPoint" />
          </mxGeometry>
        </mxCell>
        <mxCell id="zaPCLynjRVvkzG_28kJl-41" value="" style="endArrow=none;dashed=1;html=1;rounded=0;exitX=0.5;exitY=1;exitDx=0;exitDy=0;startArrow=none;opacity=50;" edge="1" parent="1">
          <mxGeometry width="50" height="50" relative="1" as="geometry">
            <mxPoint x="75" y="570" as="sourcePoint" />
            <mxPoint x="76" y="640" as="targetPoint" />
          </mxGeometry>
        </mxCell>
        <mxCell id="zaPCLynjRVvkzG_28kJl-38" value="" style="endArrow=none;dashed=1;html=1;rounded=0;opacity=75;" edge="1" parent="1">
          <mxGeometry width="50" height="50" relative="1" as="geometry">
            <mxPoint x="11" y="409.5" as="sourcePoint" />
            <mxPoint x="831" y="409.5" as="targetPoint" />
          </mxGeometry>
        </mxCell>
        <mxCell id="zaPCLynjRVvkzG_28kJl-37" value="" style="endArrow=none;dashed=1;html=1;rounded=0;opacity=75;" edge="1" parent="1">
          <mxGeometry width="50" height="50" relative="1" as="geometry">
            <mxPoint x="10" y="570" as="sourcePoint" />
            <mxPoint x="830" y="570" as="targetPoint" />
          </mxGeometry>
        </mxCell>
        <mxCell id="h6rUJBm5ATRCFSobhy7C-3" value="CAB UI" style="rounded=0;whiteSpace=wrap;html=1;" parent="1" vertex="1">
          <mxGeometry x="280" y="50" width="100" height="50" as="geometry" />
        </mxCell>
        <mxCell id="h6rUJBm5ATRCFSobhy7C-4" value="ELEVATOR CONTROLLER" style="rounded=0;whiteSpace=wrap;html=1;strokeWidth=4;" parent="1" vertex="1">
          <mxGeometry x="400" y="50" width="135" height="50" as="geometry" />
        </mxCell>
        <mxCell id="h6rUJBm5ATRCFSobhy7C-5" value="ELEVATOR&lt;br&gt;DYNAMICS" style="rounded=0;whiteSpace=wrap;html=1;" parent="1" vertex="1">
          <mxGeometry x="550" y="50" width="135" height="50" as="geometry" />
        </mxCell>
        <mxCell id="h6rUJBm5ATRCFSobhy7C-7" value="DOOR&lt;br&gt;DYNAMICS" style="rounded=0;whiteSpace=wrap;html=1;" parent="1" vertex="1">
          <mxGeometry x="700" y="50" width="135" height="50" as="geometry" />
        </mxCell>
        <mxCell id="h6rUJBm5ATRCFSobhy7C-9" value="" style="endArrow=none;dashed=1;html=1;rounded=0;exitX=0.5;exitY=1;exitDx=0;exitDy=0;startArrow=none;opacity=50;" parent="1" edge="1">
          <mxGeometry width="50" height="50" relative="1" as="geometry">
            <mxPoint x="470" y="612" as="sourcePoint" />
            <mxPoint x="470" y="642" as="targetPoint" />
          </mxGeometry>
        </mxCell>
        <mxCell id="h6rUJBm5ATRCFSobhy7C-10" value="" style="endArrow=none;dashed=1;html=1;rounded=0;opacity=50;" parent="1" edge="1">
          <mxGeometry width="50" height="50" relative="1" as="geometry">
            <mxPoint x="470" y="100" as="sourcePoint" />
            <mxPoint x="470" y="610" as="targetPoint" />
          </mxGeometry>
        </mxCell>
        <mxCell id="h6rUJBm5ATRCFSobhy7C-11" value="" style="endArrow=none;dashed=1;html=1;rounded=0;opacity=50;" parent="1" edge="1">
          <mxGeometry width="50" height="50" relative="1" as="geometry">
            <mxPoint x="617" y="100" as="sourcePoint" />
            <mxPoint x="617" y="640" as="targetPoint" />
          </mxGeometry>
        </mxCell>
        <mxCell id="h6rUJBm5ATRCFSobhy7C-12" value="" style="endArrow=none;dashed=1;html=1;rounded=0;exitX=0.5;exitY=1;exitDx=0;exitDy=0;startArrow=none;opacity=50;" parent="1" edge="1" source="h6rUJBm5ATRCFSobhy7C-7">
          <mxGeometry width="50" height="50" relative="1" as="geometry">
            <mxPoint x="767.5" y="270" as="sourcePoint" />
            <mxPoint x="768" y="640" as="targetPoint" />
          </mxGeometry>
        </mxCell>
        <mxCell id="h6rUJBm5ATRCFSobhy7C-19" value="" style="endArrow=none;dashed=1;html=1;rounded=0;exitX=0.5;exitY=1;exitDx=0;exitDy=0;opacity=50;entryX=0.5;entryY=0;entryDx=0;entryDy=0;" parent="1" target="zaPCLynjRVvkzG_28kJl-28" edge="1">
          <mxGeometry width="50" height="50" relative="1" as="geometry">
            <mxPoint x="329.5" y="100" as="sourcePoint" />
            <mxPoint x="329.88750000000005" y="410" as="targetPoint" />
          </mxGeometry>
        </mxCell>
        <mxCell id="h6rUJBm5ATRCFSobhy7C-21" style="edgeStyle=orthogonalEdgeStyle;rounded=0;orthogonalLoop=1;jettySize=auto;html=1;exitX=0.5;exitY=1;exitDx=0;exitDy=0;" parent="1" edge="1">
          <mxGeometry relative="1" as="geometry">
            <mxPoint x="330" y="590" as="sourcePoint" />
            <mxPoint x="330" y="590" as="targetPoint" />
          </mxGeometry>
        </mxCell>
        <mxCell id="h6rUJBm5ATRCFSobhy7C-26" value="FLOOR UI" style="rounded=0;whiteSpace=wrap;html=1;" parent="1" vertex="1">
          <mxGeometry x="140" y="50" width="120" height="50" as="geometry" />
        </mxCell>
        <mxCell id="h6rUJBm5ATRCFSobhy7C-27" value="" style="endArrow=none;dashed=1;html=1;rounded=0;exitX=0.5;exitY=1;exitDx=0;exitDy=0;startArrow=none;opacity=50;" parent="1" edge="1">
          <mxGeometry width="50" height="50" relative="1" as="geometry">
            <mxPoint x="200" y="560" as="sourcePoint" />
            <mxPoint x="200" y="640" as="targetPoint" />
          </mxGeometry>
        </mxCell>
        <mxCell id="h6rUJBm5ATRCFSobhy7C-28" value="" style="endArrow=none;dashed=1;html=1;rounded=0;exitX=0.5;exitY=1;exitDx=0;exitDy=0;opacity=50;entryX=0.5;entryY=0;entryDx=0;entryDy=0;" parent="1" edge="1" target="h6rUJBm5ATRCFSobhy7C-59">
          <mxGeometry width="50" height="50" relative="1" as="geometry">
            <mxPoint x="199.5" y="100" as="sourcePoint" />
            <mxPoint x="199.5689655172414" y="120" as="targetPoint" />
          </mxGeometry>
        </mxCell>
        <mxCell id="h6rUJBm5ATRCFSobhy7C-30" style="edgeStyle=orthogonalEdgeStyle;rounded=0;orthogonalLoop=1;jettySize=auto;html=1;exitX=0.5;exitY=1;exitDx=0;exitDy=0;" parent="1" edge="1">
          <mxGeometry relative="1" as="geometry">
            <mxPoint x="200" y="460" as="sourcePoint" />
            <mxPoint x="200" y="460" as="targetPoint" />
          </mxGeometry>
        </mxCell>
        <mxCell id="h6rUJBm5ATRCFSobhy7C-33" value="light at current floor turns on" style="endArrow=classic;html=1;rounded=0;exitX=-0.05;exitY=0.031;exitDx=0;exitDy=0;exitPerimeter=0;" parent="1" edge="1">
          <mxGeometry width="50" height="50" relative="1" as="geometry">
            <mxPoint x="460" y="191.19000000000005" as="sourcePoint" />
            <mxPoint x="210" y="190" as="targetPoint" />
          </mxGeometry>
        </mxCell>
        <mxCell id="h6rUJBm5ATRCFSobhy7C-34" value="queue/direction update" style="edgeStyle=none;orthogonalLoop=1;jettySize=auto;html=1;rounded=0;exitX=1.1;exitY=0.04;exitDx=0;exitDy=0;exitPerimeter=0;" parent="1" edge="1">
          <mxGeometry width="100" relative="1" as="geometry">
            <mxPoint x="212" y="229" as="sourcePoint" />
            <mxPoint x="460" y="229" as="targetPoint" />
            <Array as="points" />
          </mxGeometry>
        </mxCell>
        <mxCell id="h6rUJBm5ATRCFSobhy7C-35" value="" style="rounded=0;whiteSpace=wrap;html=1;" parent="1" vertex="1">
          <mxGeometry x="460" y="140" width="20" height="470" as="geometry" />
        </mxCell>
        <mxCell id="h6rUJBm5ATRCFSobhy7C-44" value="&lt;div&gt;elevator moves&lt;/div&gt;" style="endArrow=classic;html=1;rounded=0;entryX=-0.075;entryY=0.064;entryDx=0;entryDy=0;entryPerimeter=0;" parent="1" target="h6rUJBm5ATRCFSobhy7C-53" edge="1">
          <mxGeometry relative="1" as="geometry">
            <mxPoint x="480" y="260" as="sourcePoint" />
            <mxPoint x="550" y="260" as="targetPoint" />
          </mxGeometry>
        </mxCell>
        <mxCell id="h6rUJBm5ATRCFSobhy7C-51" value="door opens, user enters" style="edgeStyle=none;orthogonalLoop=1;jettySize=auto;html=1;rounded=0;entryX=0;entryY=0.25;entryDx=0;entryDy=0;" parent="1" target="h6rUJBm5ATRCFSobhy7C-57" edge="1">
          <mxGeometry width="100" relative="1" as="geometry">
            <mxPoint x="480" y="410" as="sourcePoint" />
            <mxPoint x="750" y="410" as="targetPoint" />
            <Array as="points" />
          </mxGeometry>
        </mxCell>
        <mxCell id="h6rUJBm5ATRCFSobhy7C-52" value="door closes" style="edgeStyle=none;orthogonalLoop=1;jettySize=auto;html=1;rounded=0;entryX=0;entryY=0.75;entryDx=0;entryDy=0;" parent="1" target="h6rUJBm5ATRCFSobhy7C-57" edge="1">
          <mxGeometry width="100" relative="1" as="geometry">
            <mxPoint x="480" y="430" as="sourcePoint" />
            <mxPoint x="750" y="430" as="targetPoint" />
            <Array as="points" />
          </mxGeometry>
        </mxCell>
        <mxCell id="h6rUJBm5ATRCFSobhy7C-53" value="" style="rounded=0;whiteSpace=wrap;html=1;" parent="1" vertex="1">
          <mxGeometry x="607.5" y="250" width="20" height="120" as="geometry" />
        </mxCell>
        <mxCell id="h6rUJBm5ATRCFSobhy7C-54" value="elevator stops" style="endArrow=classic;html=1;rounded=0;exitX=0;exitY=0.75;exitDx=0;exitDy=0;" parent="1" edge="1">
          <mxGeometry x="-0.098" width="50" height="50" relative="1" as="geometry">
            <mxPoint x="607.5" y="360" as="sourcePoint" />
            <mxPoint x="480" y="360" as="targetPoint" />
            <Array as="points">
              <mxPoint x="520" y="360" />
            </Array>
            <mxPoint x="1" as="offset" />
          </mxGeometry>
        </mxCell>
        <mxCell id="h6rUJBm5ATRCFSobhy7C-57" value="" style="rounded=0;whiteSpace=wrap;html=1;" parent="1" vertex="1">
          <mxGeometry x="757.5" y="400" width="20" height="40" as="geometry" />
        </mxCell>
        <mxCell id="h6rUJBm5ATRCFSobhy7C-59" value="" style="rounded=0;whiteSpace=wrap;html=1;" parent="1" vertex="1">
          <mxGeometry x="190" y="180" width="20" height="220" as="geometry" />
        </mxCell>
        <mxCell id="h6rUJBm5ATRCFSobhy7C-60" value="floor request" style="edgeStyle=none;orthogonalLoop=1;jettySize=auto;html=1;rounded=0;exitX=1.1;exitY=0.04;exitDx=0;exitDy=0;exitPerimeter=0;" parent="1" edge="1">
          <mxGeometry width="100" relative="1" as="geometry">
            <mxPoint x="80" y="437" as="sourcePoint" />
            <mxPoint x="320" y="437" as="targetPoint" />
            <Array as="points" />
          </mxGeometry>
        </mxCell>
        <mxCell id="h6rUJBm5ATRCFSobhy7C-62" value="cab light turns on" style="edgeStyle=none;orthogonalLoop=1;jettySize=auto;html=1;rounded=0;exitX=-0.05;exitY=0.641;exitDx=0;exitDy=0;exitPerimeter=0;entryX=1;entryY=0.25;entryDx=0;entryDy=0;" parent="1" edge="1">
          <mxGeometry width="100" relative="1" as="geometry">
            <mxPoint x="459" y="459.9100000000001" as="sourcePoint" />
            <mxPoint x="340" y="458" as="targetPoint" />
            <Array as="points" />
          </mxGeometry>
        </mxCell>
        <mxCell id="h6rUJBm5ATRCFSobhy7C-64" value="light at previous floor turns off" style="endArrow=classic;html=1;rounded=0;exitX=-0.15;exitY=0.2;exitDx=0;exitDy=0;exitPerimeter=0;entryX=1.05;entryY=0.87;entryDx=0;entryDy=0;entryPerimeter=0;" parent="1" edge="1">
          <mxGeometry x="0.004" width="50" height="50" relative="1" as="geometry">
            <mxPoint x="460" y="360" as="sourcePoint" />
            <mxPoint x="211" y="360.0999999999999" as="targetPoint" />
            <mxPoint as="offset" />
          </mxGeometry>
        </mxCell>
        <mxCell id="h6rUJBm5ATRCFSobhy7C-65" value="cab light turns off" style="edgeStyle=none;orthogonalLoop=1;jettySize=auto;html=1;rounded=0;entryX=1;entryY=0.873;entryDx=0;entryDy=0;entryPerimeter=0;" parent="1" edge="1">
          <mxGeometry width="100" relative="1" as="geometry">
            <mxPoint x="460" y="582.5" as="sourcePoint" />
            <mxPoint x="340" y="584.06" as="targetPoint" />
            <Array as="points" />
          </mxGeometry>
        </mxCell>
        <mxCell id="h6rUJBm5ATRCFSobhy7C-70" value="&lt;div&gt;elevator moves&lt;/div&gt;" style="endArrow=classic;html=1;rounded=0;entryX=0.075;entryY=0.095;entryDx=0;entryDy=0;entryPerimeter=0;" parent="1" target="h6rUJBm5ATRCFSobhy7C-72" edge="1">
          <mxGeometry relative="1" as="geometry">
            <mxPoint x="480" y="455" as="sourcePoint" />
            <mxPoint x="550" y="455" as="targetPoint" />
          </mxGeometry>
        </mxCell>
        <mxCell id="h6rUJBm5ATRCFSobhy7C-71" value="elevator_stop" style="edgeStyle=none;orthogonalLoop=1;jettySize=auto;html=1;rounded=0;entryX=-0.075;entryY=0.929;entryDx=0;entryDy=0;entryPerimeter=0;" parent="1" edge="1">
          <mxGeometry width="100" relative="1" as="geometry">
            <mxPoint x="480" y="530" as="sourcePoint" />
            <mxPoint x="606" y="530.06" as="targetPoint" />
            <Array as="points" />
          </mxGeometry>
        </mxCell>
        <mxCell id="h6rUJBm5ATRCFSobhy7C-72" value="" style="rounded=0;whiteSpace=wrap;html=1;" parent="1" vertex="1">
          <mxGeometry x="607.5" y="445" width="20" height="95" as="geometry" />
        </mxCell>
        <mxCell id="h6rUJBm5ATRCFSobhy7C-75" value="door opens, user leaves" style="edgeStyle=none;orthogonalLoop=1;jettySize=auto;html=1;rounded=0;entryX=0;entryY=0.25;entryDx=0;entryDy=0;" parent="1" target="h6rUJBm5ATRCFSobhy7C-77" edge="1">
          <mxGeometry width="100" relative="1" as="geometry">
            <mxPoint x="480" y="570" as="sourcePoint" />
            <mxPoint x="750" y="570" as="targetPoint" />
            <Array as="points" />
          </mxGeometry>
        </mxCell>
        <mxCell id="h6rUJBm5ATRCFSobhy7C-76" value="door closes" style="edgeStyle=none;orthogonalLoop=1;jettySize=auto;html=1;rounded=0;entryX=0;entryY=0.75;entryDx=0;entryDy=0;" parent="1" target="h6rUJBm5ATRCFSobhy7C-77" edge="1">
          <mxGeometry width="100" relative="1" as="geometry">
            <mxPoint x="480" y="590" as="sourcePoint" />
            <mxPoint x="750" y="590" as="targetPoint" />
            <Array as="points" />
          </mxGeometry>
        </mxCell>
        <mxCell id="h6rUJBm5ATRCFSobhy7C-77" value="" style="rounded=0;whiteSpace=wrap;html=1;" parent="1" vertex="1">
          <mxGeometry x="757.5" y="560" width="20" height="40" as="geometry" />
        </mxCell>
        <mxCell id="h6rUJBm5ATRCFSobhy7C-1" value="USER" style="rounded=0;whiteSpace=wrap;html=1;" parent="1" vertex="1">
          <mxGeometry x="20" y="50" width="110" height="50" as="geometry" />
        </mxCell>
        <mxCell id="h6rUJBm5ATRCFSobhy7C-13" value="" style="rounded=0;whiteSpace=wrap;html=1;" parent="1" vertex="1">
          <mxGeometry x="65" y="210" width="20" height="40" as="geometry" />
        </mxCell>
        <mxCell id="DgT3QlysMbPprc1NdVqg-2" style="edgeStyle=orthogonalEdgeStyle;rounded=0;orthogonalLoop=1;jettySize=auto;html=1;exitX=0.5;exitY=1;exitDx=0;exitDy=0;" parent="1" source="h6rUJBm5ATRCFSobhy7C-13" target="h6rUJBm5ATRCFSobhy7C-13" edge="1">
          <mxGeometry relative="1" as="geometry" />
        </mxCell>
        <mxCell id="DgT3QlysMbPprc1NdVqg-4" value="queue/direction&lt;br&gt;update" style="edgeStyle=none;orthogonalLoop=1;jettySize=auto;html=1;rounded=0;entryX=0.05;entryY=0.617;entryDx=0;entryDy=0;entryPerimeter=0;" parent="1" edge="1">
          <mxGeometry width="100" relative="1" as="geometry">
            <mxPoint x="340" y="435" as="sourcePoint" />
            <mxPoint x="461" y="434.99" as="targetPoint" />
            <Array as="points" />
          </mxGeometry>
        </mxCell>
        <mxCell id="zaPCLynjRVvkzG_28kJl-2" value="" style="rounded=0;whiteSpace=wrap;html=1;" vertex="1" parent="1">
          <mxGeometry x="607.5" y="140" width="20" height="60" as="geometry" />
        </mxCell>
        <mxCell id="zaPCLynjRVvkzG_28kJl-3" value="elevator moves" style="edgeStyle=none;orthogonalLoop=1;jettySize=auto;html=1;rounded=0;exitX=1.1;exitY=0.04;exitDx=0;exitDy=0;exitPerimeter=0;" edge="1" parent="1">
          <mxGeometry x="0.0769" width="100" relative="1" as="geometry">
            <mxPoint x="480" y="150" as="sourcePoint" />
            <mxPoint x="610" y="150" as="targetPoint" />
            <Array as="points" />
            <mxPoint as="offset" />
          </mxGeometry>
        </mxCell>
        <mxCell id="zaPCLynjRVvkzG_28kJl-4" style="edgeStyle=orthogonalEdgeStyle;rounded=0;orthogonalLoop=1;jettySize=auto;html=1;exitX=0;exitY=1;exitDx=0;exitDy=0;" edge="1" parent="1" source="zaPCLynjRVvkzG_28kJl-2">
          <mxGeometry relative="1" as="geometry">
            <mxPoint x="482" y="189" as="targetPoint" />
            <Array as="points">
              <mxPoint x="608" y="189" />
            </Array>
          </mxGeometry>
        </mxCell>
        <mxCell id="zaPCLynjRVvkzG_28kJl-5" value="elevator stops" style="edgeLabel;html=1;align=center;verticalAlign=middle;resizable=0;points=[];" vertex="1" connectable="0" parent="zaPCLynjRVvkzG_28kJl-4">
          <mxGeometry x="0.2101" y="-1" relative="1" as="geometry">
            <mxPoint x="14" y="2" as="offset" />
          </mxGeometry>
        </mxCell>
        <mxCell id="zaPCLynjRVvkzG_28kJl-8" value="light at current floor turns on" style="endArrow=classic;html=1;rounded=0;exitX=-0.15;exitY=0.2;exitDx=0;exitDy=0;exitPerimeter=0;entryX=1.05;entryY=0.87;entryDx=0;entryDy=0;entryPerimeter=0;" edge="1" parent="1">
          <mxGeometry x="0.004" width="50" height="50" relative="1" as="geometry">
            <mxPoint x="460" y="380" as="sourcePoint" />
            <mxPoint x="211" y="380.0999999999999" as="targetPoint" />
            <mxPoint as="offset" />
          </mxGeometry>
        </mxCell>
        <mxCell id="zaPCLynjRVvkzG_28kJl-16" value="" style="endArrow=classic;startArrow=classic;html=1;rounded=0;exitX=1.1;exitY=0.276;exitDx=0;exitDy=0;exitPerimeter=0;entryX=0.075;entryY=0.579;entryDx=0;entryDy=0;entryPerimeter=0;" edge="1" parent="1" target="h6rUJBm5ATRCFSobhy7C-72">
          <mxGeometry width="50" height="50" relative="1" as="geometry">
            <mxPoint x="480" y="501.20000000000005" as="sourcePoint" />
            <mxPoint x="605" y="500" as="targetPoint" />
          </mxGeometry>
        </mxCell>
        <mxCell id="zaPCLynjRVvkzG_28kJl-17" value="updates continuously" style="edgeLabel;html=1;align=center;verticalAlign=middle;resizable=0;points=[];" vertex="1" connectable="0" parent="zaPCLynjRVvkzG_28kJl-16">
          <mxGeometry x="0.3921" relative="1" as="geometry">
            <mxPoint x="-25" y="-9" as="offset" />
          </mxGeometry>
        </mxCell>
        <mxCell id="zaPCLynjRVvkzG_28kJl-18" value="" style="endArrow=classic;startArrow=classic;html=1;rounded=0;exitX=1.1;exitY=0.276;exitDx=0;exitDy=0;exitPerimeter=0;entryX=-0.025;entryY=0.4;entryDx=0;entryDy=0;entryPerimeter=0;" edge="1" parent="1">
          <mxGeometry width="50" height="50" relative="1" as="geometry">
            <mxPoint x="480" y="309.70000000000005" as="sourcePoint" />
            <mxPoint x="607" y="309.5" as="targetPoint" />
          </mxGeometry>
        </mxCell>
        <mxCell id="zaPCLynjRVvkzG_28kJl-19" value="updates continuously" style="edgeLabel;html=1;align=center;verticalAlign=middle;resizable=0;points=[];" vertex="1" connectable="0" parent="zaPCLynjRVvkzG_28kJl-18">
          <mxGeometry x="0.3921" relative="1" as="geometry">
            <mxPoint x="-25" y="-9" as="offset" />
          </mxGeometry>
        </mxCell>
        <mxCell id="zaPCLynjRVvkzG_28kJl-20" value="" style="endArrow=classic;startArrow=classic;html=1;rounded=0;exitX=1.1;exitY=0.276;exitDx=0;exitDy=0;exitPerimeter=0;entryX=-0.025;entryY=0.4;entryDx=0;entryDy=0;entryPerimeter=0;" edge="1" parent="1">
          <mxGeometry width="50" height="50" relative="1" as="geometry">
            <mxPoint x="480" y="177.70000000000005" as="sourcePoint" />
            <mxPoint x="607" y="177.5" as="targetPoint" />
          </mxGeometry>
        </mxCell>
        <mxCell id="zaPCLynjRVvkzG_28kJl-21" value="updates continuously" style="edgeLabel;html=1;align=center;verticalAlign=middle;resizable=0;points=[];" vertex="1" connectable="0" parent="zaPCLynjRVvkzG_28kJl-20">
          <mxGeometry x="0.3921" relative="1" as="geometry">
            <mxPoint x="-25" y="-9" as="offset" />
          </mxGeometry>
        </mxCell>
        <mxCell id="zaPCLynjRVvkzG_28kJl-23" value="" style="endArrow=none;dashed=1;html=1;rounded=0;exitX=0.5;exitY=1;exitDx=0;exitDy=0;startArrow=none;opacity=50;" edge="1" parent="1" source="h6rUJBm5ATRCFSobhy7C-59" target="zaPCLynjRVvkzG_28kJl-22">
          <mxGeometry width="50" height="50" relative="1" as="geometry">
            <mxPoint x="200" y="400" as="sourcePoint" />
            <mxPoint x="200" y="650" as="targetPoint" />
          </mxGeometry>
        </mxCell>
        <mxCell id="zaPCLynjRVvkzG_28kJl-22" value="" style="rounded=0;whiteSpace=wrap;html=1;" vertex="1" parent="1">
          <mxGeometry x="190" y="518" width="20" height="40" as="geometry" />
        </mxCell>
        <mxCell id="zaPCLynjRVvkzG_28kJl-24" value="light at previous floor turns off" style="endArrow=classic;html=1;rounded=0;exitX=-0.15;exitY=0.2;exitDx=0;exitDy=0;exitPerimeter=0;entryX=1.05;entryY=0.87;entryDx=0;entryDy=0;entryPerimeter=0;" edge="1" parent="1">
          <mxGeometry x="0.004" width="50" height="50" relative="1" as="geometry">
            <mxPoint x="460" y="530.5" as="sourcePoint" />
            <mxPoint x="211" y="530.5999999999999" as="targetPoint" />
            <mxPoint as="offset" />
          </mxGeometry>
        </mxCell>
        <mxCell id="zaPCLynjRVvkzG_28kJl-25" value="light at current floor turns on" style="endArrow=classic;html=1;rounded=0;exitX=-0.15;exitY=0.2;exitDx=0;exitDy=0;exitPerimeter=0;entryX=1.05;entryY=0.87;entryDx=0;entryDy=0;entryPerimeter=0;" edge="1" parent="1">
          <mxGeometry x="0.004" width="50" height="50" relative="1" as="geometry">
            <mxPoint x="460" y="544.5" as="sourcePoint" />
            <mxPoint x="211" y="544.5999999999999" as="targetPoint" />
            <mxPoint as="offset" />
          </mxGeometry>
        </mxCell>
        <mxCell id="zaPCLynjRVvkzG_28kJl-28" value="" style="rounded=0;whiteSpace=wrap;html=1;" vertex="1" parent="1">
          <mxGeometry x="320" y="426" width="20" height="40" as="geometry" />
        </mxCell>
        <mxCell id="zaPCLynjRVvkzG_28kJl-30" value="" style="endArrow=none;dashed=1;html=1;rounded=0;startArrow=none;opacity=50;exitX=0.5;exitY=1;exitDx=0;exitDy=0;" edge="1" parent="1" source="zaPCLynjRVvkzG_28kJl-28" target="zaPCLynjRVvkzG_28kJl-29">
          <mxGeometry width="50" height="50" relative="1" as="geometry">
            <mxPoint x="330" y="470" as="sourcePoint" />
            <mxPoint x="329.5" y="700" as="targetPoint" />
          </mxGeometry>
        </mxCell>
        <mxCell id="zaPCLynjRVvkzG_28kJl-29" value="" style="rounded=0;whiteSpace=wrap;html=1;" vertex="1" parent="1">
          <mxGeometry x="320" y="570" width="20" height="26" as="geometry" />
        </mxCell>
        <mxCell id="zaPCLynjRVvkzG_28kJl-36" value="" style="endArrow=none;dashed=1;html=1;rounded=0;startArrow=none;opacity=50;" edge="1" parent="1">
          <mxGeometry width="50" height="50" relative="1" as="geometry">
            <mxPoint x="330" y="597" as="sourcePoint" />
            <mxPoint x="330" y="640" as="targetPoint" />
          </mxGeometry>
        </mxCell>
        <mxCell id="zaPCLynjRVvkzG_28kJl-39" value="elevator request" style="edgeStyle=none;orthogonalLoop=1;jettySize=auto;html=1;rounded=0;exitX=1.1;exitY=0.045;exitDx=0;exitDy=0;exitPerimeter=0;" edge="1" parent="1">
          <mxGeometry width="100" relative="1" as="geometry">
            <mxPoint x="86" y="228" as="sourcePoint" />
            <mxPoint x="189" y="229.00397260273974" as="targetPoint" />
            <Array as="points" />
          </mxGeometry>
        </mxCell>
        <mxCell id="zaPCLynjRVvkzG_28kJl-45" value="" style="shape=flexArrow;endArrow=classic;startArrow=classic;html=1;rounded=0;" edge="1" parent="1">
          <mxGeometry width="100" height="100" relative="1" as="geometry">
            <mxPoint x="75" y="570" as="sourcePoint" />
            <mxPoint x="75" y="410" as="targetPoint" />
          </mxGeometry>
        </mxCell>
        <mxCell id="zaPCLynjRVvkzG_28kJl-47" value="&lt;div align=&quot;right&quot;&gt;USER IN ELEVATOR&lt;br&gt;&lt;/div&gt;" style="text;html=1;align=center;verticalAlign=middle;whiteSpace=wrap;rounded=0;" vertex="1" parent="1">
          <mxGeometry x="15" y="474.5" width="40" height="30" as="geometry" />
        </mxCell>
        <mxCell id="zaPCLynjRVvkzG_28kJl-48" value="&lt;div align=&quot;right&quot;&gt;USER CALLS ELEVATOR&lt;br&gt;&lt;/div&gt;" style="text;html=1;align=center;verticalAlign=middle;whiteSpace=wrap;rounded=0;" vertex="1" parent="1">
          <mxGeometry x="11" y="216" width="40" height="30" as="geometry" />
        </mxCell>
      </root>
    </mxGraphModel>
  </diagram>
  <diagram id="Q5Wxx10o3nDraJJ5WT4P" name="Klassediagram">
    <mxGraphModel dx="1362" dy="766" grid="1" gridSize="10" guides="1" tooltips="1" connect="1" arrows="1" fold="1" page="1" pageScale="1" pageWidth="850" pageHeight="1100" math="0" shadow="0">
      <root>
        <mxCell id="0" />
        <mxCell id="1" parent="0" />
        <mxCell id="TbiB_fDBfIH7Ke6Y8VpF-1" value="&lt;div&gt;&lt;b&gt;&lt;br&gt;&lt;/b&gt;&lt;/div&gt;&lt;div&gt;&lt;b&gt;Heiskontroller&lt;/b&gt;&lt;/div&gt;" style="swimlane;fontStyle=0;align=center;verticalAlign=top;childLayout=stackLayout;horizontal=1;startSize=55;horizontalStack=0;resizeParent=1;resizeParentMax=0;resizeLast=0;collapsible=0;marginBottom=0;html=1;whiteSpace=wrap;" vertex="1" parent="1">
          <mxGeometry x="510" y="10" width="190" height="160" as="geometry" />
        </mxCell>
        <mxCell id="TbiB_fDBfIH7Ke6Y8VpF-2" value="attributes" style="text;html=1;strokeColor=none;fillColor=none;align=center;verticalAlign=middle;spacingLeft=4;spacingRight=4;overflow=hidden;rotatable=0;points=[[0,0.5],[1,0.5]];portConstraint=eastwest;whiteSpace=wrap;" vertex="1" parent="TbiB_fDBfIH7Ke6Y8VpF-1">
          <mxGeometry y="55" width="190" height="20" as="geometry" />
        </mxCell>
        <mxCell id="TbiB_fDBfIH7Ke6Y8VpF-3" value="attribute1" style="text;html=1;strokeColor=none;fillColor=none;align=left;verticalAlign=middle;spacingLeft=4;spacingRight=4;overflow=hidden;rotatable=0;points=[[0,0.5],[1,0.5]];portConstraint=eastwest;whiteSpace=wrap;" vertex="1" parent="TbiB_fDBfIH7Ke6Y8VpF-1">
          <mxGeometry y="75" width="190" height="20" as="geometry" />
        </mxCell>
        <mxCell id="TbiB_fDBfIH7Ke6Y8VpF-6" value="" style="line;strokeWidth=1;fillColor=none;align=left;verticalAlign=middle;spacingTop=-1;spacingLeft=3;spacingRight=3;rotatable=0;labelPosition=right;points=[];portConstraint=eastwest;" vertex="1" parent="TbiB_fDBfIH7Ke6Y8VpF-1">
          <mxGeometry y="95" width="190" height="8" as="geometry" />
        </mxCell>
        <mxCell id="TbiB_fDBfIH7Ke6Y8VpF-7" value="funksjoner" style="text;html=1;strokeColor=none;fillColor=none;align=center;verticalAlign=middle;spacingLeft=4;spacingRight=4;overflow=hidden;rotatable=0;points=[[0,0.5],[1,0.5]];portConstraint=eastwest;whiteSpace=wrap;" vertex="1" parent="TbiB_fDBfIH7Ke6Y8VpF-1">
          <mxGeometry y="103" width="190" height="20" as="geometry" />
        </mxCell>
        <mxCell id="TbiB_fDBfIH7Ke6Y8VpF-8" value="&lt;div&gt;door_close(): void&lt;br&gt;&lt;/div&gt;&lt;div&gt;move_floor(num_floors: int): void&lt;br&gt;&lt;/div&gt;&lt;div&gt;&lt;br&gt;&lt;br&gt;&lt;/div&gt;" style="text;html=1;strokeColor=none;fillColor=none;align=left;verticalAlign=middle;spacingLeft=4;spacingRight=4;overflow=hidden;rotatable=0;points=[[0,0.5],[1,0.5]];portConstraint=eastwest;whiteSpace=wrap;" vertex="1" parent="TbiB_fDBfIH7Ke6Y8VpF-1">
          <mxGeometry y="123" width="190" height="37" as="geometry" />
        </mxCell>
        <mxCell id="vYsI3eO_H-T6MCM5xVuX-1" value="&lt;div&gt;&lt;b&gt;&lt;br&gt;&lt;/b&gt;&lt;/div&gt;&lt;div&gt;&lt;b&gt;Heispanel&lt;/b&gt;&lt;/div&gt;" style="swimlane;fontStyle=0;align=center;verticalAlign=top;childLayout=stackLayout;horizontal=1;startSize=55;horizontalStack=0;resizeParent=1;resizeParentMax=0;resizeLast=0;collapsible=0;marginBottom=0;html=1;whiteSpace=wrap;" vertex="1" parent="1">
          <mxGeometry x="350" y="247" width="140" height="300" as="geometry" />
        </mxCell>
        <mxCell id="vYsI3eO_H-T6MCM5xVuX-2" value="attributes" style="text;html=1;strokeColor=none;fillColor=none;align=center;verticalAlign=middle;spacingLeft=4;spacingRight=4;overflow=hidden;rotatable=0;points=[[0,0.5],[1,0.5]];portConstraint=eastwest;whiteSpace=wrap;" vertex="1" parent="vYsI3eO_H-T6MCM5xVuX-1">
          <mxGeometry y="55" width="140" height="20" as="geometry" />
        </mxCell>
        <mxCell id="vYsI3eO_H-T6MCM5xVuX-3" value="&lt;div&gt;elev_light_1: bool&lt;br&gt;&lt;/div&gt;&lt;div&gt;elev_light_2: bool&lt;br&gt;&lt;/div&gt;&lt;div&gt;elev_light_3: bool&lt;br&gt;&lt;/div&gt;&lt;div&gt;elev_light_4: bool&lt;/div&gt;&lt;div&gt;elev_btn_1: bool&lt;br&gt;&lt;/div&gt;&lt;div&gt;elev_btn_2: bool&lt;br&gt;&lt;/div&gt;&lt;div&gt;elev_btn_3: bool&lt;br&gt;&lt;/div&gt;&lt;div&gt;elev_btn_4: bool&lt;br&gt;&lt;/div&gt;" style="text;html=1;strokeColor=none;fillColor=none;align=left;verticalAlign=middle;spacingLeft=4;spacingRight=4;overflow=hidden;rotatable=0;points=[[0,0.5],[1,0.5]];portConstraint=eastwest;whiteSpace=wrap;" vertex="1" parent="vYsI3eO_H-T6MCM5xVuX-1">
          <mxGeometry y="75" width="140" height="145" as="geometry" />
        </mxCell>
        <mxCell id="vYsI3eO_H-T6MCM5xVuX-4" value="" style="line;strokeWidth=1;fillColor=none;align=left;verticalAlign=middle;spacingTop=-1;spacingLeft=3;spacingRight=3;rotatable=0;labelPosition=right;points=[];portConstraint=eastwest;" vertex="1" parent="vYsI3eO_H-T6MCM5xVuX-1">
          <mxGeometry y="220" width="140" height="8" as="geometry" />
        </mxCell>
        <mxCell id="vYsI3eO_H-T6MCM5xVuX-5" value="funksjoner" style="text;html=1;strokeColor=none;fillColor=none;align=center;verticalAlign=middle;spacingLeft=4;spacingRight=4;overflow=hidden;rotatable=0;points=[[0,0.5],[1,0.5]];portConstraint=eastwest;whiteSpace=wrap;" vertex="1" parent="vYsI3eO_H-T6MCM5xVuX-1">
          <mxGeometry y="228" width="140" height="20" as="geometry" />
        </mxCell>
        <mxCell id="vYsI3eO_H-T6MCM5xVuX-6" value="&lt;div&gt;void door_close()&lt;/div&gt;&lt;div&gt;&lt;br&gt;&lt;/div&gt;" style="text;html=1;strokeColor=none;fillColor=none;align=left;verticalAlign=middle;spacingLeft=4;spacingRight=4;overflow=hidden;rotatable=0;points=[[0,0.5],[1,0.5]];portConstraint=eastwest;whiteSpace=wrap;" vertex="1" parent="vYsI3eO_H-T6MCM5xVuX-1">
          <mxGeometry y="248" width="140" height="52" as="geometry" />
        </mxCell>
        <mxCell id="vYsI3eO_H-T6MCM5xVuX-7" value="&lt;div&gt;&lt;b&gt;&lt;br&gt;&lt;/b&gt;&lt;/div&gt;&lt;b&gt;Bruker&lt;/b&gt;" style="swimlane;fontStyle=0;align=center;verticalAlign=top;childLayout=stackLayout;horizontal=1;startSize=55;horizontalStack=0;resizeParent=1;resizeParentMax=0;resizeLast=0;collapsible=0;marginBottom=0;html=1;whiteSpace=wrap;" vertex="1" parent="1">
          <mxGeometry x="50" y="247" width="140" height="143" as="geometry" />
        </mxCell>
        <mxCell id="vYsI3eO_H-T6MCM5xVuX-8" value="attributes" style="text;html=1;strokeColor=none;fillColor=none;align=center;verticalAlign=middle;spacingLeft=4;spacingRight=4;overflow=hidden;rotatable=0;points=[[0,0.5],[1,0.5]];portConstraint=eastwest;whiteSpace=wrap;" vertex="1" parent="vYsI3eO_H-T6MCM5xVuX-7">
          <mxGeometry y="55" width="140" height="20" as="geometry" />
        </mxCell>
        <mxCell id="vYsI3eO_H-T6MCM5xVuX-9" value="attribute1" style="text;html=1;strokeColor=none;fillColor=none;align=left;verticalAlign=middle;spacingLeft=4;spacingRight=4;overflow=hidden;rotatable=0;points=[[0,0.5],[1,0.5]];portConstraint=eastwest;whiteSpace=wrap;" vertex="1" parent="vYsI3eO_H-T6MCM5xVuX-7">
          <mxGeometry y="75" width="140" height="20" as="geometry" />
        </mxCell>
        <mxCell id="vYsI3eO_H-T6MCM5xVuX-10" value="" style="line;strokeWidth=1;fillColor=none;align=left;verticalAlign=middle;spacingTop=-1;spacingLeft=3;spacingRight=3;rotatable=0;labelPosition=right;points=[];portConstraint=eastwest;" vertex="1" parent="vYsI3eO_H-T6MCM5xVuX-7">
          <mxGeometry y="95" width="140" height="8" as="geometry" />
        </mxCell>
        <mxCell id="vYsI3eO_H-T6MCM5xVuX-11" value="funksjoner" style="text;html=1;strokeColor=none;fillColor=none;align=center;verticalAlign=middle;spacingLeft=4;spacingRight=4;overflow=hidden;rotatable=0;points=[[0,0.5],[1,0.5]];portConstraint=eastwest;whiteSpace=wrap;" vertex="1" parent="vYsI3eO_H-T6MCM5xVuX-7">
          <mxGeometry y="103" width="140" height="20" as="geometry" />
        </mxCell>
        <mxCell id="vYsI3eO_H-T6MCM5xVuX-12" value="&lt;div&gt;void door_close()&lt;/div&gt;&lt;div&gt;&lt;br&gt;&lt;/div&gt;" style="text;html=1;strokeColor=none;fillColor=none;align=left;verticalAlign=middle;spacingLeft=4;spacingRight=4;overflow=hidden;rotatable=0;points=[[0,0.5],[1,0.5]];portConstraint=eastwest;whiteSpace=wrap;" vertex="1" parent="vYsI3eO_H-T6MCM5xVuX-7">
          <mxGeometry y="123" width="140" height="20" as="geometry" />
        </mxCell>
        <mxCell id="vYsI3eO_H-T6MCM5xVuX-13" value="&lt;div&gt;&lt;b&gt;&lt;br&gt;&lt;/b&gt;&lt;/div&gt;&lt;b&gt;Etasjepanel&lt;/b&gt;" style="swimlane;fontStyle=0;align=center;verticalAlign=top;childLayout=stackLayout;horizontal=1;startSize=55;horizontalStack=0;resizeParent=1;resizeParentMax=0;resizeLast=0;collapsible=0;marginBottom=0;html=1;whiteSpace=wrap;" vertex="1" parent="1">
          <mxGeometry x="200" y="247" width="140" height="143" as="geometry" />
        </mxCell>
        <mxCell id="vYsI3eO_H-T6MCM5xVuX-14" value="attributes" style="text;html=1;strokeColor=none;fillColor=none;align=center;verticalAlign=middle;spacingLeft=4;spacingRight=4;overflow=hidden;rotatable=0;points=[[0,0.5],[1,0.5]];portConstraint=eastwest;whiteSpace=wrap;" vertex="1" parent="vYsI3eO_H-T6MCM5xVuX-13">
          <mxGeometry y="55" width="140" height="20" as="geometry" />
        </mxCell>
        <mxCell id="vYsI3eO_H-T6MCM5xVuX-15" value="attribute1" style="text;html=1;strokeColor=none;fillColor=none;align=left;verticalAlign=middle;spacingLeft=4;spacingRight=4;overflow=hidden;rotatable=0;points=[[0,0.5],[1,0.5]];portConstraint=eastwest;whiteSpace=wrap;" vertex="1" parent="vYsI3eO_H-T6MCM5xVuX-13">
          <mxGeometry y="75" width="140" height="20" as="geometry" />
        </mxCell>
        <mxCell id="vYsI3eO_H-T6MCM5xVuX-16" value="" style="line;strokeWidth=1;fillColor=none;align=left;verticalAlign=middle;spacingTop=-1;spacingLeft=3;spacingRight=3;rotatable=0;labelPosition=right;points=[];portConstraint=eastwest;" vertex="1" parent="vYsI3eO_H-T6MCM5xVuX-13">
          <mxGeometry y="95" width="140" height="8" as="geometry" />
        </mxCell>
        <mxCell id="vYsI3eO_H-T6MCM5xVuX-17" value="funksjoner" style="text;html=1;strokeColor=none;fillColor=none;align=center;verticalAlign=middle;spacingLeft=4;spacingRight=4;overflow=hidden;rotatable=0;points=[[0,0.5],[1,0.5]];portConstraint=eastwest;whiteSpace=wrap;" vertex="1" parent="vYsI3eO_H-T6MCM5xVuX-13">
          <mxGeometry y="103" width="140" height="20" as="geometry" />
        </mxCell>
        <mxCell id="vYsI3eO_H-T6MCM5xVuX-18" value="&lt;div&gt;void door_close()&lt;/div&gt;&lt;div&gt;&lt;br&gt;&lt;/div&gt;" style="text;html=1;strokeColor=none;fillColor=none;align=left;verticalAlign=middle;spacingLeft=4;spacingRight=4;overflow=hidden;rotatable=0;points=[[0,0.5],[1,0.5]];portConstraint=eastwest;whiteSpace=wrap;" vertex="1" parent="vYsI3eO_H-T6MCM5xVuX-13">
          <mxGeometry y="123" width="140" height="20" as="geometry" />
        </mxCell>
        <mxCell id="vYsI3eO_H-T6MCM5xVuX-19" value="&lt;div&gt;&lt;b&gt;&lt;br&gt;&lt;/b&gt;&lt;/div&gt;&lt;div&gt;&lt;b&gt;Heisdynamikk&lt;br&gt;&lt;/b&gt;&lt;/div&gt;" style="swimlane;fontStyle=0;align=center;verticalAlign=top;childLayout=stackLayout;horizontal=1;startSize=55;horizontalStack=0;resizeParent=1;resizeParentMax=0;resizeLast=0;collapsible=0;marginBottom=0;html=1;whiteSpace=wrap;" vertex="1" parent="1">
          <mxGeometry x="600" y="350" width="200" height="143" as="geometry" />
        </mxCell>
        <mxCell id="vYsI3eO_H-T6MCM5xVuX-20" value="attributes" style="text;html=1;strokeColor=none;fillColor=none;align=center;verticalAlign=middle;spacingLeft=4;spacingRight=4;overflow=hidden;rotatable=0;points=[[0,0.5],[1,0.5]];portConstraint=eastwest;whiteSpace=wrap;" vertex="1" parent="vYsI3eO_H-T6MCM5xVuX-19">
          <mxGeometry y="55" width="200" height="20" as="geometry" />
        </mxCell>
        <mxCell id="vYsI3eO_H-T6MCM5xVuX-21" value="attribute1" style="text;html=1;strokeColor=none;fillColor=none;align=left;verticalAlign=middle;spacingLeft=4;spacingRight=4;overflow=hidden;rotatable=0;points=[[0,0.5],[1,0.5]];portConstraint=eastwest;whiteSpace=wrap;" vertex="1" parent="vYsI3eO_H-T6MCM5xVuX-19">
          <mxGeometry y="75" width="200" height="20" as="geometry" />
        </mxCell>
        <mxCell id="vYsI3eO_H-T6MCM5xVuX-22" value="" style="line;strokeWidth=1;fillColor=none;align=left;verticalAlign=middle;spacingTop=-1;spacingLeft=3;spacingRight=3;rotatable=0;labelPosition=right;points=[];portConstraint=eastwest;" vertex="1" parent="vYsI3eO_H-T6MCM5xVuX-19">
          <mxGeometry y="95" width="200" height="8" as="geometry" />
        </mxCell>
        <mxCell id="vYsI3eO_H-T6MCM5xVuX-23" value="funksjoner" style="text;html=1;strokeColor=none;fillColor=none;align=center;verticalAlign=middle;spacingLeft=4;spacingRight=4;overflow=hidden;rotatable=0;points=[[0,0.5],[1,0.5]];portConstraint=eastwest;whiteSpace=wrap;" vertex="1" parent="vYsI3eO_H-T6MCM5xVuX-19">
          <mxGeometry y="103" width="200" height="20" as="geometry" />
        </mxCell>
        <mxCell id="vYsI3eO_H-T6MCM5xVuX-24" value="&lt;div&gt;move_floor(num_floors: int): void&lt;br&gt;&lt;/div&gt;&lt;div&gt;&lt;br&gt;&lt;/div&gt;" style="text;html=1;strokeColor=none;fillColor=none;align=left;verticalAlign=middle;spacingLeft=4;spacingRight=4;overflow=hidden;rotatable=0;points=[[0,0.5],[1,0.5]];portConstraint=eastwest;whiteSpace=wrap;" vertex="1" parent="vYsI3eO_H-T6MCM5xVuX-19">
          <mxGeometry y="123" width="200" height="20" as="geometry" />
        </mxCell>
        <mxCell id="vYsI3eO_H-T6MCM5xVuX-25" value="&lt;div&gt;&lt;b&gt;&lt;br&gt;&lt;/b&gt;&lt;/div&gt;&lt;div&gt;&lt;b&gt;Dørdynamikk&lt;/b&gt;&lt;/div&gt;" style="swimlane;fontStyle=0;align=center;verticalAlign=top;childLayout=stackLayout;horizontal=1;startSize=55;horizontalStack=0;resizeParent=1;resizeParentMax=0;resizeLast=0;collapsible=0;marginBottom=0;html=1;whiteSpace=wrap;" vertex="1" parent="1">
          <mxGeometry x="640" y="170" width="140" height="143" as="geometry" />
        </mxCell>
        <mxCell id="vYsI3eO_H-T6MCM5xVuX-26" value="attributes" style="text;html=1;strokeColor=none;fillColor=none;align=center;verticalAlign=middle;spacingLeft=4;spacingRight=4;overflow=hidden;rotatable=0;points=[[0,0.5],[1,0.5]];portConstraint=eastwest;whiteSpace=wrap;" vertex="1" parent="vYsI3eO_H-T6MCM5xVuX-25">
          <mxGeometry y="55" width="140" height="20" as="geometry" />
        </mxCell>
        <mxCell id="vYsI3eO_H-T6MCM5xVuX-27" value="attribute1" style="text;html=1;strokeColor=none;fillColor=none;align=left;verticalAlign=middle;spacingLeft=4;spacingRight=4;overflow=hidden;rotatable=0;points=[[0,0.5],[1,0.5]];portConstraint=eastwest;whiteSpace=wrap;" vertex="1" parent="vYsI3eO_H-T6MCM5xVuX-25">
          <mxGeometry y="75" width="140" height="20" as="geometry" />
        </mxCell>
        <mxCell id="vYsI3eO_H-T6MCM5xVuX-28" value="" style="line;strokeWidth=1;fillColor=none;align=left;verticalAlign=middle;spacingTop=-1;spacingLeft=3;spacingRight=3;rotatable=0;labelPosition=right;points=[];portConstraint=eastwest;" vertex="1" parent="vYsI3eO_H-T6MCM5xVuX-25">
          <mxGeometry y="95" width="140" height="8" as="geometry" />
        </mxCell>
        <mxCell id="vYsI3eO_H-T6MCM5xVuX-29" value="funksjoner" style="text;html=1;strokeColor=none;fillColor=none;align=center;verticalAlign=middle;spacingLeft=4;spacingRight=4;overflow=hidden;rotatable=0;points=[[0,0.5],[1,0.5]];portConstraint=eastwest;whiteSpace=wrap;" vertex="1" parent="vYsI3eO_H-T6MCM5xVuX-25">
          <mxGeometry y="103" width="140" height="20" as="geometry" />
        </mxCell>
        <mxCell id="vYsI3eO_H-T6MCM5xVuX-30" value="&lt;div&gt;void door_close()&lt;/div&gt;&lt;div&gt;&lt;br&gt;&lt;/div&gt;" style="text;html=1;strokeColor=none;fillColor=none;align=left;verticalAlign=middle;spacingLeft=4;spacingRight=4;overflow=hidden;rotatable=0;points=[[0,0.5],[1,0.5]];portConstraint=eastwest;whiteSpace=wrap;" vertex="1" parent="vYsI3eO_H-T6MCM5xVuX-25">
          <mxGeometry y="123" width="140" height="20" as="geometry" />
        </mxCell>
      </root>
    </mxGraphModel>
  </diagram>
  <diagram id="T4xrWeCCDAsCgFFNc7WB" name="Page-3">
    <mxGraphModel dx="1362" dy="766" grid="1" gridSize="10" guides="1" tooltips="1" connect="1" arrows="1" fold="1" page="1" pageScale="1" pageWidth="850" pageHeight="1100" math="0" shadow="0">
      <root>
        <mxCell id="0" />
        <mxCell id="1" parent="0" />
      </root>
    </mxGraphModel>
  </diagram>
</mxfile>
